<svg class="ldi-tiag03" width="200px" height="200px" xmlns="http://www.w3.org/2000/svg"
     viewBox="9 9 82 82" preserveAspectRatio="xMidYMid"
     style="background: none;">
  <g>
    <circle cx="50" cy="50" r="40" fill="#dd2e3c" style="fill: rgb(221, 46, 60);" />
    <path d="M66.4,52.548H67c0.42,1.222,1.578,2.105,2.94,2.105c1.716,0,3.111-1.396,3.111-3.111 c0-1.716-1.396-3.111-3.111-3.111c-1.335,0-2.472,0.847-2.913,2.03c0.015-0.163,0.027-0.327,0.027-0.493 c0-1.588-0.699-3.104-1.882-4.15c0.125-0.465,0.198-0.947,0.198-1.439c0-0.798-0.177-1.561-0.488-2.253l1.161-1.219 c0.396,0.183,0.835,0.288,1.298,0.288c1.716,0,3.111-1.396,3.111-3.111c0-1.715-1.396-3.111-3.111-3.111 c-1.715,0-3.111,1.396-3.111,3.111c0,0.518,0.129,1.006,0.354,1.437l-0.876,0.92c-0.768-0.757-1.753-1.297-2.856-1.505 c-0.215-2.139-1.652-3.919-3.599-4.638l2.493-3.478h3.176c0.419,1.223,1.578,2.105,2.94,2.105c1.716,0,3.111-1.396,3.111-3.111 c0-1.715-1.396-3.111-3.111-3.111c-1.363,0-2.521,0.882-2.94,2.105h-4.209l-3.7,5.162c-1.961,0.115-3.653,1.247-4.543,2.882 c-0.812-1.491-2.292-2.563-4.033-2.829v-1.97c1.222-0.42,2.105-1.578,2.105-2.941c0-1.715-1.396-3.111-3.111-3.111 c-1.716,0-3.111,1.396-3.111,3.111c0,1.363,0.882,2.522,2.105,2.941v2.03c-2.315,0.503-4.097,2.452-4.338,4.854 c-0.239,0.045-0.47,0.11-0.696,0.185l-3.921-4.19H33c-0.419-1.223-1.578-2.105-2.94-2.105c-1.716,0-3.111,1.396-3.111,3.111 c0,1.715,1.396,3.111,3.111,3.111c1.363,0,2.521-0.882,2.94-2.105h1.598l2.979,3.185c-1.226,1.023-2.007,2.56-2.007,4.253 c0,0.492,0.073,0.974,0.198,1.439c-1.182,1.046-1.882,2.561-1.882,4.15c0,1.588,0.699,3.103,1.88,4.149 c-0.125,0.465-0.197,0.946-0.197,1.44c0,1.034,0.293,2.009,0.799,2.845H34.68c-0.419-1.223-1.578-2.105-2.94-2.105 c-1.716,0-3.111,1.396-3.111,3.111c0,1.715,1.396,3.111,3.111,3.111c1.363,0,2.521-0.882,2.94-2.105h3.484v-0.179 c0.578,0.367,1.227,0.634,1.924,0.766c0.184,1.83,1.264,3.395,2.791,4.261l-2.575,3.09h-4.689c-0.419-1.223-1.578-2.105-2.941-2.105 c-1.715,0-3.111,1.396-3.111,3.111c0,1.715,1.396,3.111,3.111,3.111c1.363,0,2.521-0.882,2.941-2.105h5.631l3.687-4.424 c0.219,0.026,0.441,0.045,0.667,0.045c2.099,0,3.93-1.174,4.87-2.899c0.786,1.443,2.196,2.496,3.863,2.803v2.06 c-1.222,0.42-2.105,1.578-2.105,2.941c0,1.715,1.396,3.111,3.111,3.111c1.716,0,3.111-1.396,3.111-3.111 c0-1.363-0.882-2.522-2.105-2.941v-2.057c1.394-0.257,2.607-1.037,3.426-2.129l2.692,2.755h1.65c0.419,1.223,1.578,2.105,2.94,2.105 c1.716,0,3.111-1.396,3.111-3.111c0-1.715-1.396-3.111-3.111-3.111c-1.363,0-2.521,0.882-2.94,2.105h-0.802l-2.613-2.674 c0.07-0.27,0.125-0.546,0.154-0.83c2.575-0.485,4.518-2.772,4.518-5.444c0-0.494-0.072-0.976-0.197-1.44 C65.679,53.67,66.089,53.134,66.4,52.548z M67.341,36.985c0.606,0,1.099,0.493,1.099,1.099c0,0.456-0.279,0.847-0.675,1.014 c-0.131,0.055-0.274,0.085-0.424,0.085c-0.606,0-1.099-0.493-1.099-1.099c0-0.134,0.028-0.262,0.072-0.381 C66.47,37.285,66.87,36.985,67.341,36.985z M64.765,29.812c0-0.45,0.272-0.836,0.66-1.006c0.135-0.059,0.282-0.093,0.439-0.093 c0.606,0,1.099,0.493,1.099,1.099c0,0.606-0.493,1.099-1.099,1.099c-0.156,0-0.305-0.034-0.44-0.093 C65.037,30.648,64.765,30.262,64.765,29.812z M31.158,35.936c0,0.45-0.272,0.836-0.66,1.006c-0.135,0.059-0.282,0.093-0.439,0.093 c-0.606,0-1.099-0.493-1.099-1.099c0-0.606,0.493-1.099,1.099-1.099c0.156,0,0.305,0.034,0.44,0.093 C30.887,35.1,31.158,35.486,31.158,35.936z M32.838,59.408c0,0.45-0.272,0.836-0.66,1.006c-0.135,0.059-0.282,0.093-0.439,0.093 c-0.606,0-1.099-0.493-1.099-1.099c0-0.606,0.493-1.099,1.099-1.099c0.156,0,0.305,0.034,0.44,0.093 C32.566,58.572,32.838,58.958,32.838,59.408z M33.774,69.359c0,0.45-0.272,0.836-0.66,1.006c-0.135,0.059-0.283,0.093-0.439,0.093 c-0.156,0-0.304-0.034-0.439-0.093c-0.003-0.001-0.005-0.003-0.008-0.004c-0.383-0.172-0.652-0.555-0.652-1.002 c0-0.447,0.269-0.831,0.652-1.002c0.002-0.001,0.004-0.003,0.007-0.004c0.135-0.059,0.283-0.093,0.44-0.093 c0.157,0,0.305,0.034,0.44,0.093C33.502,68.523,33.774,68.909,33.774,69.359z M65.955,65.511c0-0.45,0.272-0.836,0.66-1.006 c0.135-0.059,0.282-0.093,0.439-0.093c0.606,0,1.099,0.493,1.099,1.099c0,0.606-0.493,1.099-1.099,1.099 c-0.156,0-0.305-0.034-0.44-0.093C66.227,66.347,65.955,65.961,65.955,65.511z M69.94,50.442c0.606,0,1.099,0.493,1.099,1.099 c0,0.606-0.493,1.099-1.099,1.099c-0.156,0-0.304-0.034-0.438-0.093c-0.388-0.17-0.66-0.556-0.66-1.006s0.272-0.836,0.659-1.006 C69.635,50.476,69.784,50.442,69.94,50.442z M45.432,28.012c0.606,0,1.099,0.493,1.099,1.099c0,0.268-0.1,0.511-0.26,0.702 c-0.202,0.241-0.501,0.397-0.839,0.397c-0.338,0-0.637-0.157-0.839-0.397c-0.16-0.191-0.26-0.434-0.26-0.702 C44.332,28.505,44.825,28.012,45.432,28.012z M40.928,57.481c-0.118,0.185-0.224,0.376-0.319,0.574 c-0.019,0.04-0.039,0.08-0.057,0.12c-0.102,0.227-0.192,0.459-0.262,0.698c0,0,0,0.001,0,0.001 c-0.009,0.029-0.021,0.057-0.029,0.086c-0.064,0.231-0.112,0.467-0.145,0.706c-0.751-0.183-1.417-0.575-1.952-1.099v-0.164H38.01 c-0.695-0.757-1.13-1.754-1.13-2.845c0-0.474,0.079-0.936,0.228-1.371c0.013-0.038,0.029-0.076,0.044-0.114 c0.037-0.098,0.076-0.196,0.12-0.291c0.028-0.061,0.06-0.12,0.092-0.18c0.036-0.068,0.071-0.136,0.111-0.201 c0.045-0.075,0.093-0.147,0.142-0.219c0.032-0.047,0.064-0.093,0.098-0.139c0.061-0.081,0.124-0.16,0.191-0.237 c0.028-0.033,0.057-0.065,0.087-0.098c0.075-0.081,0.153-0.161,0.234-0.237c0.078-0.072,0.153-0.146,0.237-0.213l-0.821-1.021 c-0.001,0.001-0.002,0.001-0.002,0.002l-0.002-0.002c-0.024,0.019-0.043,0.043-0.066,0.062c-0.163,0.136-0.315,0.281-0.459,0.433 c-0.05,0.052-0.1,0.104-0.147,0.158c-0.147,0.168-0.284,0.342-0.41,0.524c-0.013,0.019-0.031,0.036-0.044,0.056 c-0.075,0.111-0.145,0.225-0.211,0.341c-0.706-0.772-1.104-1.77-1.104-2.844c0-1.073,0.398-2.071,1.104-2.843 c0.066,0.115,0.139,0.227,0.213,0.337c0.004,0.006,0.009,0.011,0.013,0.017c0.12,0.178,0.253,0.348,0.392,0.513 c0.037,0.044,0.076,0.086,0.115,0.129c0.123,0.136,0.254,0.267,0.393,0.391c0.025,0.022,0.046,0.049,0.071,0.071l0.002-0.002 c0.001,0.001,0.001,0.001,0.002,0.002l0.853-0.993c-0.084-0.072-0.161-0.151-0.239-0.229c-0.071-0.071-0.138-0.144-0.203-0.22 c-0.032-0.037-0.063-0.074-0.094-0.112c-0.057-0.07-0.111-0.142-0.163-0.215c-0.036-0.051-0.07-0.102-0.103-0.154 c-0.041-0.064-0.082-0.129-0.119-0.195c-0.04-0.07-0.077-0.142-0.113-0.214c-0.026-0.052-0.052-0.104-0.076-0.157 c-0.044-0.098-0.082-0.197-0.118-0.298c-0.011-0.032-0.024-0.063-0.035-0.094c-0.139-0.422-0.213-0.868-0.213-1.322 c0-1.966,1.378-3.656,3.237-4.109c0.032,0.224,0.074,0.445,0.132,0.662c0.012,0.046,0.031,0.089,0.045,0.135 c0.003,0.011,0.007,0.022,0.011,0.032c0.071,0.234,0.158,0.461,0.259,0.684c0.019,0.042,0.039,0.084,0.059,0.126 c0.097,0.201,0.207,0.396,0.328,0.585c0.021,0.033,0.041,0.068,0.063,0.101c0.148,0.218,0.306,0.43,0.486,0.628 c0.41,0.451,0.774,0.696,1.185,0.963c-0.007,0.054-0.003,0.107-0.007,0.161c-0.011,0.127-0.018,0.254-0.018,0.381 c0,0.081,0.002,0.162,0.007,0.242c0.008,0.146,0.023,0.291,0.046,0.435c0.01,0.062,0.02,0.123,0.033,0.185 c0.032,0.159,0.074,0.316,0.124,0.471c0.017,0.053,0.035,0.105,0.054,0.157c0.066,0.181,0.14,0.361,0.23,0.533 c0.023,0.043,0.05,0.084,0.074,0.127c0.121,0.215,0.254,0.425,0.413,0.62l0.003-0.002c0.001,0.001,0.001,0.001,0.002,0.002 l1.016-0.826c-0.025-0.031-0.045-0.064-0.069-0.095c-0.064-0.086-0.125-0.173-0.18-0.264c-0.016-0.026-0.03-0.052-0.044-0.079 c-0.087-0.154-0.164-0.313-0.224-0.477c-0.002-0.005-0.003-0.01-0.004-0.015c-0.054-0.151-0.091-0.308-0.12-0.465 c-0.008-0.044-0.017-0.088-0.024-0.133c-0.021-0.149-0.03-0.299-0.029-0.45c0-0.058,0.005-0.116,0.009-0.174 c0.008-0.123,0.023-0.246,0.046-0.369c0.007-0.035,0.01-0.071,0.017-0.106c0.058-0.262,0.15-0.511,0.27-0.745 c0.007-0.014,0.015-0.027,0.022-0.041c0.052-0.097,0.109-0.19,0.17-0.28c0.016-0.024,0.032-0.047,0.049-0.07 c0.056-0.077,0.116-0.151,0.178-0.223c0.024-0.027,0.047-0.056,0.072-0.082c0.06-0.064,0.124-0.125,0.19-0.184 c0.03-0.027,0.058-0.056,0.089-0.082c0.076-0.063,0.156-0.121,0.237-0.177c0.069-0.047,0.141-0.09,0.215-0.132 c0.05-0.029,0.1-0.059,0.152-0.085c0.113-0.057,0.231-0.105,0.352-0.148c0.026-0.009,0.05-0.022,0.077-0.031l-0.403-1.246 c-0.001,0-0.002,0.001-0.004,0.001l0-0.001c-1.176,0.381-2.123,1.245-2.635,2.343c-0.208-0.147-0.397-0.3-0.596-0.52 c-0.711-0.78-1.103-1.792-1.103-2.849c0-2.332,1.896-4.229,4.227-4.231h0.006c2.232,0.003,4.061,1.744,4.212,3.938 c-0.005,0.098-0.015,0.194-0.015,0.293v20.951c0,0.099,0.01,0.195,0.015,0.293c-0.142,2.061-1.763,3.722-3.809,3.918 c-0.134,0.013-0.269,0.021-0.406,0.021c-0.669,0-1.301-0.161-1.864-0.439c-1.399-0.691-2.366-2.129-2.366-3.792 c0-0.868,0.258-1.692,0.738-2.389c0.74,1.085,1.865,1.909,3.234,2.251l0-0.001c0.001,0,0.003,0.001,0.004,0.001l0.317-1.271 c-0.015-0.004-0.029-0.009-0.044-0.013c-0.167-0.044-0.328-0.098-0.485-0.16c-0.014-0.005-0.027-0.011-0.041-0.016 c-0.214-0.086-0.418-0.188-0.61-0.305c-0.009-0.005-0.017-0.011-0.026-0.017c-0.194-0.12-0.378-0.253-0.548-0.401 c-0.002-0.002-0.004-0.004-0.006-0.006c-0.165-0.144-0.316-0.301-0.456-0.467c-0.01-0.012-0.022-0.024-0.032-0.036 c-0.127-0.155-0.239-0.321-0.343-0.492c-0.022-0.036-0.045-0.071-0.065-0.108c-0.091-0.161-0.17-0.33-0.239-0.502 c-0.021-0.052-0.041-0.104-0.06-0.158c-0.06-0.168-0.11-0.341-0.148-0.517c-0.013-0.061-0.023-0.122-0.034-0.184 c-0.03-0.177-0.053-0.357-0.06-0.54c-0.002-0.06,0.001-0.12,0.001-0.181c0-0.165,0.01-0.332,0.029-0.499 c0.004-0.036,0.005-0.072,0.011-0.108c0.029-0.202,0.073-0.4,0.13-0.594c0.001-0.004,0.002-0.009,0.003-0.013 c0.059-0.197,0.131-0.39,0.218-0.576l-1.187-0.553c0,0.001,0,0.001-0.001,0.002l-0.004-0.002c-0.228,0.488-0.383,1.009-0.461,1.548 c-0.132,0.916-0.032,1.812,0.254,2.63c-0.174,0.195-0.327,0.403-0.47,0.617C40.967,57.415,40.949,57.448,40.928,57.481z M55.34,71.988c-0.606,0-1.099-0.493-1.099-1.099c0-0.156,0.034-0.304,0.093-0.439c0.17-0.388,0.556-0.66,1.006-0.66 s0.836,0.272,1.006,0.659c0.059,0.135,0.093,0.283,0.093,0.44C56.439,71.495,55.946,71.988,55.34,71.988z M64.429,52.47 c-0.013-0.02-0.03-0.036-0.044-0.056c-0.126-0.182-0.263-0.357-0.41-0.524c-0.047-0.054-0.097-0.106-0.147-0.158 c-0.144-0.152-0.296-0.297-0.459-0.433c-0.023-0.02-0.042-0.043-0.066-0.062l-0.002,0.002c-0.001-0.001-0.002-0.001-0.002-0.002 l-0.821,1.021c0.084,0.067,0.159,0.141,0.237,0.213c0.082,0.076,0.159,0.155,0.234,0.237c0.03,0.032,0.058,0.065,0.087,0.098 c0.066,0.077,0.13,0.156,0.191,0.237c0.034,0.046,0.066,0.092,0.098,0.139c0.049,0.072,0.097,0.145,0.142,0.219 c0.039,0.066,0.075,0.134,0.111,0.201c0.031,0.06,0.063,0.119,0.092,0.18c0.044,0.095,0.083,0.193,0.12,0.291 c0.014,0.038,0.03,0.075,0.044,0.114c0.149,0.435,0.228,0.897,0.228,1.371c0,1.966-1.378,3.656-3.236,4.108 c-0.033-0.24-0.081-0.475-0.145-0.706c-0.008-0.029-0.021-0.057-0.029-0.086c0,0,0-0.001,0-0.001 c-0.07-0.239-0.16-0.471-0.262-0.698c-0.018-0.041-0.038-0.081-0.057-0.121c-0.094-0.197-0.201-0.388-0.319-0.573 c-0.021-0.033-0.04-0.066-0.061-0.098c-0.143-0.214-0.296-0.422-0.47-0.617c0.286-0.818,0.386-1.714,0.254-2.63 c-0.078-0.539-0.233-1.06-0.461-1.548l-0.004,0.002c0-0.001,0-0.001-0.001-0.002l-1.187,0.553c0.087,0.186,0.16,0.378,0.218,0.576 c0.001,0.004,0.002,0.008,0.003,0.012c0.057,0.194,0.101,0.392,0.13,0.594c0.005,0.036,0.006,0.072,0.011,0.109 c0.02,0.167,0.029,0.333,0.029,0.498c0,0.061,0.003,0.121,0.001,0.182c-0.007,0.183-0.03,0.362-0.06,0.539 c-0.011,0.062-0.021,0.124-0.034,0.185c-0.038,0.176-0.088,0.348-0.148,0.517c-0.019,0.053-0.039,0.106-0.06,0.158 c-0.069,0.172-0.148,0.34-0.239,0.501c-0.021,0.037-0.044,0.072-0.066,0.108c-0.104,0.171-0.215,0.337-0.342,0.491 c-0.01,0.013-0.022,0.024-0.033,0.037c-0.14,0.166-0.291,0.323-0.456,0.467c-0.002,0.002-0.004,0.004-0.006,0.006 c-0.17,0.147-0.354,0.281-0.548,0.401c-0.009,0.005-0.017,0.011-0.026,0.017c-0.193,0.117-0.397,0.219-0.61,0.305 c-0.014,0.006-0.027,0.011-0.041,0.016c-0.157,0.062-0.318,0.116-0.485,0.16c-0.015,0.004-0.029,0.01-0.044,0.013l0.317,1.271 c0.001,0,0.003-0.001,0.004-0.001l0,0.001c1.369-0.342,2.494-1.165,3.234-2.251c0.48,0.698,0.738,1.522,0.738,2.389 c0,0.075-0.007,0.149-0.011,0.223c-0.042,0.792-0.296,1.528-0.716,2.146c-0.761,1.123-2.047,1.862-3.502,1.863 c-2.234-0.001-4.063-1.743-4.215-3.939c-0.007-0.097-0.015-0.194-0.015-0.293V39.492c0-0.099,0.008-0.196,0.015-0.293 c0.152-2.196,1.981-3.938,4.215-3.939c0.284,0,0.561,0.029,0.829,0.083l0.22,0.158l0.062-0.087c1.794,0.491,3.119,2.131,3.119,4.078 c0,1.057-0.392,2.068-1.103,2.849c-0.2,0.22-0.388,0.373-0.596,0.52c-0.512-1.098-1.459-1.963-2.635-2.343l0,0.001 c-0.001,0-0.002-0.001-0.004-0.001l-0.403,1.246c0.026,0.009,0.051,0.021,0.077,0.031c0.12,0.043,0.238,0.091,0.352,0.148 c0.052,0.026,0.102,0.056,0.152,0.085c0.073,0.042,0.145,0.085,0.215,0.132c0.082,0.056,0.161,0.114,0.237,0.177 c0.031,0.026,0.059,0.055,0.089,0.082c0.066,0.059,0.13,0.119,0.19,0.184c0.025,0.026,0.048,0.055,0.072,0.082 c0.063,0.072,0.123,0.146,0.179,0.223c0.017,0.023,0.033,0.046,0.049,0.07c0.062,0.09,0.118,0.184,0.17,0.28 c0.007,0.014,0.015,0.027,0.022,0.041c0.12,0.233,0.213,0.483,0.27,0.745c0.008,0.035,0.011,0.071,0.017,0.106 c0.023,0.123,0.038,0.246,0.046,0.369c0.004,0.058,0.008,0.116,0.009,0.175c0.001,0.151-0.008,0.301-0.029,0.45 c-0.006,0.045-0.015,0.088-0.024,0.133c-0.03,0.158-0.066,0.314-0.12,0.465c-0.002,0.005-0.003,0.01-0.004,0.015 c-0.06,0.165-0.137,0.323-0.224,0.477c-0.015,0.026-0.029,0.053-0.044,0.079c-0.054,0.091-0.116,0.178-0.18,0.264 c-0.024,0.031-0.044,0.064-0.069,0.095l1.016,0.826c0.001-0.001,0.001-0.001,0.002-0.002l0.003,0.002 c0.16-0.196,0.294-0.406,0.415-0.622c0.024-0.042,0.05-0.082,0.073-0.125c0.09-0.173,0.164-0.352,0.23-0.533 c0.019-0.052,0.037-0.104,0.054-0.157c0.05-0.155,0.091-0.312,0.124-0.471c0.013-0.061,0.023-0.123,0.033-0.185 c0.023-0.144,0.038-0.289,0.046-0.435c0.004-0.08,0.007-0.161,0.007-0.242c0-0.127-0.007-0.254-0.018-0.381 c-0.005-0.054-0.001-0.107-0.007-0.161c0.411-0.267,0.775-0.512,1.185-0.963c0.18-0.197,0.338-0.409,0.486-0.627 c0.022-0.033,0.042-0.068,0.063-0.101c0.122-0.189,0.231-0.383,0.328-0.584c0.02-0.042,0.04-0.084,0.059-0.126 c0.101-0.222,0.188-0.45,0.259-0.684c0.003-0.011,0.007-0.021,0.011-0.032c0.014-0.046,0.033-0.089,0.045-0.135 c0.058-0.217,0.101-0.438,0.132-0.662c1.859,0.453,3.236,2.142,3.236,4.109c0,0.455-0.074,0.9-0.213,1.322 c-0.011,0.032-0.023,0.063-0.035,0.094c-0.036,0.101-0.074,0.2-0.118,0.298c-0.024,0.053-0.05,0.105-0.076,0.157 c-0.036,0.072-0.073,0.144-0.113,0.214c-0.038,0.066-0.078,0.131-0.119,0.195c-0.034,0.052-0.068,0.103-0.103,0.154 c-0.052,0.073-0.106,0.145-0.163,0.215c-0.031,0.038-0.062,0.075-0.094,0.112c-0.065,0.075-0.132,0.149-0.203,0.22 c-0.078,0.078-0.155,0.156-0.239,0.229l0.853,0.993c0.001-0.001,0.002-0.001,0.002-0.002l0.002,0.002 c0.026-0.022,0.046-0.049,0.072-0.071c0.138-0.124,0.269-0.254,0.392-0.39c0.039-0.043,0.078-0.085,0.115-0.129 c0.14-0.165,0.272-0.335,0.392-0.513c0.004-0.006,0.009-0.011,0.013-0.017c0.074-0.111,0.147-0.222,0.213-0.337 c0.706,0.771,1.104,1.769,1.104,2.843c0,1.074-0.398,2.072-1.104,2.844C64.574,52.695,64.504,52.582,64.429,52.47z"
          fill="rgb(255, 255, 255)" style="fill: rgb(255, 255, 255);" />
  </g>
</svg>
